<svg width="1512" height="89" viewBox="0 0 1512 89" fill="none" xmlns="http://www.w3.org/2000/svg">
<g clip-path="url(#clip0_292_2763)">
<path opacity="0.25" d="M1518 89V54.6683C1457.55 38.2033 1386.96 30.8088 1318.13 33.9016C1229.12 37.8843 1145.67 58.6065 1056.53 61.7141C963.12 64.9478 869.89 49.1948 780.505 35.5629C692.878 22.2129 605.555 17.1103 515.614 25.8619C469.884 30.3119 427.254 39.0933 383.485 47.6224C266.295 70.4583 110.055 99.5984 0 50.0848V89L1518 89Z" fill="url(#paint0_linear_292_2763)"/>
<path opacity="0.5" d="M1518 89V77.2743C1501.56 61.6177 1483.04 46.8288 1457.67 35.5629C1392.25 6.47475 1309.28 6.675 1233.91 21.0782C1194.5 28.6061 1157.89 40.4134 1120.47 50.5965C1068.71 64.6882 1013.29 84.7132 954.974 87.4351C909.105 89.5488 865.285 80.4486 830.245 64.0281C790.056 45.1972 751.41 18.0448 699.153 9.88641C647.996 1.88383 596.245 14.8482 548.453 27.8941C500.662 40.94 453.376 56.8191 400.55 59.8228C324.991 64.1616 257.25 42.8535 186.891 31.0165C148.688 24.5937 112.256 26.4404 76.7223 36.579C48.3484 44.6558 16.0023 56.5521 0 73.0987V89L1518 89Z" fill="url(#paint1_linear_292_2763)"/>
<path d="M1518 89V84.8244C1328.34 45.2417 1120.68 36.1043 916.075 57.4273C861.68 63.0936 809.524 72.3496 754.648 77.0518C680.013 83.4523 612.361 67.9738 545.215 50.7968C470.669 31.7285 397.21 18.3637 314.732 22.25C205.272 27.4417 96.5701 56.1516 0 85.1508V89L1518 89Z" fill="url(#paint2_linear_292_2763)"/>
</g>
<defs>
<linearGradient id="paint0_linear_292_2763" x1="0" y1="55.2598" x2="1518" y2="55.2598" gradientUnits="userSpaceOnUse">
<stop stop-color="#FBECC2"/>
<stop offset="1" stop-color="#FBECC2"/>
</linearGradient>
<linearGradient id="paint1_linear_292_2763" x1="0" y1="48.2123" x2="1518" y2="48.2123" gradientUnits="userSpaceOnUse">
<stop stop-color="#FBECC2"/>
<stop offset="1" stop-color="#FBECC2"/>
</linearGradient>
<linearGradient id="paint2_linear_292_2763" x1="0" y1="55.2879" x2="1518" y2="55.2879" gradientUnits="userSpaceOnUse">
<stop stop-color="#FBECC2"/>
<stop offset="1" stop-color="#FBECC2"/>
</linearGradient>
<clipPath id="clip0_292_2763">
<rect width="1512" height="89" fill="white" transform="matrix(-1 0 0 -1 1512 89)"/>
</clipPath>
</defs>
</svg>
