<svg width="263" height="74" viewBox="0 0 263 74" fill="none" xmlns="http://www.w3.org/2000/svg">
<g filter="url(#filter0_d_793_3683)">
<mask id="path-1-outside-1_793_3683" maskUnits="userSpaceOnUse" x="222" y="6" width="38" height="38" fill="black">
<rect fill="white" x="222" y="6" width="38" height="38"/>
<path d="M236.55 42.2408V7.0419H245.45V42.2408H236.55ZM223.401 29.0909V20.1918H258.599V29.0909H223.401Z"/>
</mask>
<path d="M236.55 42.2408V7.0419H245.45V42.2408H236.55ZM223.401 29.0909V20.1918H258.599V29.0909H223.401Z" fill="#E9B949"/>
<path d="M236.55 42.2408H235.55V43.2408H236.55V42.2408ZM236.55 7.0419V6.0419H235.55V7.0419H236.55ZM245.45 7.0419H246.45V6.0419H245.45V7.0419ZM245.45 42.2408V43.2408H246.45V42.2408H245.45ZM223.401 29.0909H222.401V30.0909H223.401V29.0909ZM223.401 20.1918V19.1918H222.401V20.1918H223.401ZM258.599 20.1918H259.599V19.1918H258.599V20.1918ZM258.599 29.0909V30.0909H259.599V29.0909H258.599ZM237.55 42.2408V7.0419H235.55V42.2408H237.55ZM236.55 8.0419H245.45V6.0419H236.55V8.0419ZM244.45 7.0419V42.2408H246.45V7.0419H244.45ZM245.45 41.2408H236.55V43.2408H245.45V41.2408ZM224.401 29.0909V20.1918H222.401V29.0909H224.401ZM223.401 21.1918H258.599V19.1918H223.401V21.1918ZM257.599 20.1918V29.0909H259.599V20.1918H257.599ZM258.599 28.0909H223.401V30.0909H258.599V28.0909Z" fill="#0BA6C9" mask="url(#path-1-outside-1_793_3683)"/>
</g>
<path d="M3.03409 62V27.0909H26.1477V33.1761H10.4148V41.4943H24.6136V47.5795H10.4148V62H3.03409ZM38.2372 27.0909V62H30.9759V27.0909H38.2372ZM51.5199 62.4943C49.8494 62.4943 48.3608 62.2045 47.054 61.625C45.7472 61.0341 44.7131 60.1648 43.9517 59.017C43.2017 57.858 42.8267 56.4148 42.8267 54.6875C42.8267 53.233 43.0938 52.0114 43.6278 51.0227C44.1619 50.0341 44.8892 49.2386 45.8097 48.6364C46.7301 48.0341 47.7756 47.5795 48.946 47.2727C50.1278 46.9659 51.3665 46.75 52.6619 46.625C54.1847 46.4659 55.4119 46.3182 56.3438 46.1818C57.2756 46.0341 57.9517 45.8182 58.3722 45.5341C58.7926 45.25 59.0028 44.8295 59.0028 44.2727V44.1705C59.0028 43.0909 58.6619 42.2557 57.9801 41.6648C57.3097 41.0739 56.3551 40.7784 55.1165 40.7784C53.8097 40.7784 52.7699 41.0682 51.9972 41.6477C51.2244 42.2159 50.7131 42.9318 50.4631 43.7955L43.7472 43.25C44.0881 41.6591 44.7585 40.2841 45.7585 39.125C46.7585 37.9545 48.0483 37.0568 49.6278 36.4318C51.2188 35.7955 53.0597 35.4773 55.1506 35.4773C56.6051 35.4773 57.9972 35.6477 59.3267 35.9886C60.6676 36.3295 61.8551 36.858 62.8892 37.5739C63.9347 38.2898 64.7585 39.2102 65.3608 40.3352C65.9631 41.4489 66.2642 42.7841 66.2642 44.3409V62H59.3778V58.3693H59.1733C58.7528 59.1875 58.1903 59.9091 57.4858 60.5341C56.7812 61.1477 55.9347 61.6307 54.946 61.983C53.9574 62.3239 52.8153 62.4943 51.5199 62.4943ZM53.5994 57.483C54.6676 57.483 55.6108 57.2727 56.429 56.8523C57.2472 56.4205 57.8892 55.8409 58.3551 55.1136C58.821 54.3864 59.054 53.5625 59.054 52.642V49.8636C58.8267 50.0114 58.5142 50.1477 58.1165 50.2727C57.7301 50.3864 57.2926 50.4943 56.804 50.5966C56.3153 50.6875 55.8267 50.7727 55.3381 50.8523C54.8494 50.9205 54.4062 50.983 54.0085 51.0398C53.1563 51.1648 52.4119 51.3636 51.7756 51.6364C51.1392 51.9091 50.6449 52.2784 50.2926 52.7443C49.9403 53.1989 49.7642 53.767 49.7642 54.4489C49.7642 55.4375 50.1222 56.1932 50.8381 56.7159C51.5653 57.2273 52.4858 57.483 53.5994 57.483ZM85.8239 35.8182V41.2727H70.0568V35.8182H85.8239ZM73.6364 29.5455H80.8977V53.9545C80.8977 54.625 81 55.1477 81.2045 55.5227C81.4091 55.8864 81.6932 56.142 82.0568 56.2898C82.4318 56.4375 82.8636 56.5114 83.3523 56.5114C83.6932 56.5114 84.0341 56.483 84.375 56.4261C84.7159 56.358 84.9773 56.3068 85.1591 56.2727L86.3011 61.6761C85.9375 61.7898 85.4261 61.9205 84.767 62.0682C84.108 62.2273 83.3068 62.3239 82.3636 62.358C80.6136 62.4261 79.0795 62.1932 77.7614 61.6591C76.4545 61.125 75.4375 60.2955 74.7102 59.1705C73.983 58.0455 73.625 56.625 73.6364 54.9091V29.5455Z" fill="#E9B949"/>
<path d="M91.2528 27.0909H100.355L109.969 50.5455H110.378L119.991 27.0909H129.094V62H121.935V39.2784H121.645L112.611 61.8295H107.736L98.7017 39.1932H98.4119V62H91.2528V27.0909ZM142.504 62.4943C140.834 62.4943 139.345 62.2045 138.038 61.625C136.732 61.0341 135.697 60.1648 134.936 59.017C134.186 57.858 133.811 56.4148 133.811 54.6875C133.811 53.233 134.078 52.0114 134.612 51.0227C135.146 50.0341 135.874 49.2386 136.794 48.6364C137.714 48.0341 138.76 47.5795 139.93 47.2727C141.112 46.9659 142.351 46.75 143.646 46.625C145.169 46.4659 146.396 46.3182 147.328 46.1818C148.26 46.0341 148.936 45.8182 149.357 45.5341C149.777 45.25 149.987 44.8295 149.987 44.2727V44.1705C149.987 43.0909 149.646 42.2557 148.964 41.6648C148.294 41.0739 147.339 40.7784 146.101 40.7784C144.794 40.7784 143.754 41.0682 142.982 41.6477C142.209 42.2159 141.697 42.9318 141.447 43.7955L134.732 43.25C135.072 41.6591 135.743 40.2841 136.743 39.125C137.743 37.9545 139.033 37.0568 140.612 36.4318C142.203 35.7955 144.044 35.4773 146.135 35.4773C147.589 35.4773 148.982 35.6477 150.311 35.9886C151.652 36.3295 152.839 36.858 153.874 37.5739C154.919 38.2898 155.743 39.2102 156.345 40.3352C156.947 41.4489 157.249 42.7841 157.249 44.3409V62H150.362V58.3693H150.158C149.737 59.1875 149.175 59.9091 148.47 60.5341C147.766 61.1477 146.919 61.6307 145.93 61.983C144.942 62.3239 143.8 62.4943 142.504 62.4943ZM144.584 57.483C145.652 57.483 146.595 57.2727 147.413 56.8523C148.232 56.4205 148.874 55.8409 149.339 55.1136C149.805 54.3864 150.038 53.5625 150.038 52.642V49.8636C149.811 50.0114 149.499 50.1477 149.101 50.2727C148.714 50.3864 148.277 50.4943 147.788 50.5966C147.3 50.6875 146.811 50.7727 146.322 50.8523C145.834 50.9205 145.391 50.983 144.993 51.0398C144.141 51.1648 143.396 51.3636 142.76 51.6364C142.124 51.9091 141.629 52.2784 141.277 52.7443C140.925 53.1989 140.749 53.767 140.749 54.4489C140.749 55.4375 141.107 56.1932 141.822 56.7159C142.55 57.2273 143.47 57.483 144.584 57.483ZM176.808 35.8182V41.2727H161.041V35.8182H176.808ZM164.621 29.5455H171.882V53.9545C171.882 54.625 171.984 55.1477 172.189 55.5227C172.393 55.8864 172.678 56.142 173.041 56.2898C173.416 56.4375 173.848 56.5114 174.337 56.5114C174.678 56.5114 175.018 56.483 175.359 56.4261C175.7 56.358 175.962 56.3068 176.143 56.2727L177.286 61.6761C176.922 61.7898 176.411 61.9205 175.751 62.0682C175.092 62.2273 174.291 62.3239 173.348 62.358C171.598 62.4261 170.064 62.1932 168.746 61.6591C167.439 61.125 166.422 60.2955 165.695 59.1705C164.967 58.0455 164.609 56.625 164.621 54.9091V29.5455ZM193.087 62.5114C190.405 62.5114 188.098 61.9432 186.166 60.8068C184.246 59.6591 182.768 58.0682 181.734 56.0341C180.712 54 180.2 51.6591 180.2 49.0114C180.2 46.3295 180.717 43.9773 181.751 41.9545C182.797 39.9205 184.28 38.3352 186.2 37.1989C188.121 36.0511 190.405 35.4773 193.053 35.4773C195.337 35.4773 197.337 35.892 199.053 36.7216C200.768 37.5511 202.126 38.7159 203.126 40.2159C204.126 41.7159 204.678 43.4773 204.78 45.5H197.928C197.734 44.1932 197.223 43.142 196.393 42.3466C195.575 41.5398 194.501 41.1364 193.172 41.1364C192.047 41.1364 191.064 41.4432 190.223 42.0568C189.393 42.6591 188.746 43.5398 188.28 44.6989C187.814 45.858 187.581 47.2614 187.581 48.9091C187.581 50.5795 187.808 52 188.263 53.1705C188.729 54.3409 189.382 55.233 190.223 55.8466C191.064 56.4602 192.047 56.767 193.172 56.767C194.001 56.767 194.746 56.5966 195.405 56.2557C196.075 55.9148 196.626 55.4205 197.058 54.7727C197.501 54.1136 197.791 53.3239 197.928 52.4034H204.78C204.666 54.4034 204.121 56.1648 203.143 57.6875C202.178 59.1989 200.842 60.3807 199.138 61.233C197.433 62.0852 195.416 62.5114 193.087 62.5114ZM216.69 46.8636V62H209.429V27.0909H216.486V40.4375H216.793C217.384 38.892 218.338 37.6818 219.656 36.8068C220.974 35.9205 222.628 35.4773 224.616 35.4773C226.435 35.4773 228.02 35.875 229.372 36.6705C230.736 37.4545 231.793 38.5852 232.543 40.0625C233.304 41.5284 233.679 43.2841 233.668 45.3295V62H226.406V46.625C226.418 45.0114 226.009 43.7557 225.179 42.858C224.361 41.9602 223.213 41.5114 221.736 41.5114C220.747 41.5114 219.872 41.7216 219.111 42.142C218.361 42.5625 217.77 43.1761 217.338 43.983C216.918 44.7784 216.702 45.7386 216.69 46.8636Z" fill="black"/>
<defs>
<filter id="filter0_d_793_3683" x="219.4" y="7.04199" width="43.1992" height="43.1992" filterUnits="userSpaceOnUse" color-interpolation-filters="sRGB">
<feFlood flood-opacity="0" result="BackgroundImageFix"/>
<feColorMatrix in="SourceAlpha" type="matrix" values="0 0 0 0 0 0 0 0 0 0 0 0 0 0 0 0 0 0 127 0" result="hardAlpha"/>
<feOffset dy="4"/>
<feGaussianBlur stdDeviation="2"/>
<feComposite in2="hardAlpha" operator="out"/>
<feColorMatrix type="matrix" values="0 0 0 0 0 0 0 0 0 0 0 0 0 0 0 0 0 0 0.25 0"/>
<feBlend mode="normal" in2="BackgroundImageFix" result="effect1_dropShadow_793_3683"/>
<feBlend mode="normal" in="SourceGraphic" in2="effect1_dropShadow_793_3683" result="shape"/>
</filter>
</defs>
</svg>
