<svg width="353" height="74" viewBox="0 0 353 74" fill="none" xmlns="http://www.w3.org/2000/svg">
<g filter="url(#filter0_d_793_3680)">
<mask id="path-1-outside-1_793_3680" maskUnits="userSpaceOnUse" x="312" y="6" width="38" height="38" fill="black">
<rect fill="white" x="312" y="6" width="38" height="38"/>
<path d="M326.55 42.2408V7.0419H335.45V42.2408H326.55ZM313.401 29.0909V20.1918H348.599V29.0909H313.401Z"/>
</mask>
<path d="M326.55 42.2408V7.0419H335.45V42.2408H326.55ZM313.401 29.0909V20.1918H348.599V29.0909H313.401Z" fill="#E9B949"/>
<path d="M326.55 42.2408H325.55V43.2408H326.55V42.2408ZM326.55 7.0419V6.0419H325.55V7.0419H326.55ZM335.45 7.0419H336.45V6.0419H335.45V7.0419ZM335.45 42.2408V43.2408H336.45V42.2408H335.45ZM313.401 29.0909H312.401V30.0909H313.401V29.0909ZM313.401 20.1918V19.1918H312.401V20.1918H313.401ZM348.599 20.1918H349.599V19.1918H348.599V20.1918ZM348.599 29.0909V30.0909H349.599V29.0909H348.599ZM327.55 42.2408V7.0419H325.55V42.2408H327.55ZM326.55 8.0419H335.45V6.0419H326.55V8.0419ZM334.45 7.0419V42.2408H336.45V7.0419H334.45ZM335.45 41.2408H326.55V43.2408H335.45V41.2408ZM314.401 29.0909V20.1918H312.401V29.0909H314.401ZM313.401 21.1918H348.599V19.1918H313.401V21.1918ZM347.599 20.1918V29.0909H349.599V20.1918H347.599ZM348.599 28.0909H313.401V30.0909H348.599V28.0909Z" fill="#0BA6C9" mask="url(#path-1-outside-1_793_3680)"/>
</g>
<path d="M1.70455 33.1761V27.0909H30.375V33.1761H19.6875V62H12.392V33.1761H1.70455ZM32.2415 62V35.8182H39.2812V40.3864H39.554C40.0313 38.7614 40.8324 37.5341 41.9574 36.7045C43.0824 35.8636 44.3778 35.4432 45.8438 35.4432C46.2074 35.4432 46.5994 35.4659 47.0199 35.5114C47.4403 35.5568 47.8097 35.6193 48.1278 35.6989V42.142C47.7869 42.0398 47.3153 41.9489 46.7131 41.8693C46.1108 41.7898 45.5597 41.75 45.0597 41.75C43.9915 41.75 43.0369 41.983 42.196 42.4489C41.3665 42.9034 40.7074 43.5398 40.2188 44.358C39.7415 45.1761 39.5028 46.1193 39.5028 47.1875V62H32.2415ZM57.1619 71.8182C56.2415 71.8182 55.3778 71.7443 54.571 71.5966C53.7756 71.4602 53.1165 71.2841 52.5938 71.0682L54.2301 65.6477C55.0824 65.9091 55.8494 66.0511 56.5312 66.0739C57.2244 66.0966 57.821 65.9375 58.321 65.5966C58.8324 65.2557 59.2472 64.6761 59.5653 63.858L59.9915 62.75L50.5994 35.8182H58.2358L63.6562 55.0455H63.929L69.4006 35.8182H77.0881L66.9119 64.8295C66.4233 66.2386 65.7585 67.4659 64.9176 68.5114C64.0881 69.5682 63.0369 70.3807 61.7642 70.9489C60.4915 71.5284 58.9574 71.8182 57.1619 71.8182Z" fill="#27241D"/>
<path d="M92.0497 62V27.0909H115.163V33.1761H99.4304V41.4943H113.629V47.5795H99.4304V62H92.0497ZM127.253 27.0909V62H119.991V27.0909H127.253ZM140.536 62.4943C138.865 62.4943 137.376 62.2045 136.07 61.625C134.763 61.0341 133.729 60.1648 132.967 59.017C132.217 57.858 131.842 56.4148 131.842 54.6875C131.842 53.233 132.109 52.0114 132.643 51.0227C133.178 50.0341 133.905 49.2386 134.825 48.6364C135.746 48.0341 136.791 47.5795 137.962 47.2727C139.143 46.9659 140.382 46.75 141.678 46.625C143.2 46.4659 144.428 46.3182 145.359 46.1818C146.291 46.0341 146.967 45.8182 147.388 45.5341C147.808 45.25 148.018 44.8295 148.018 44.2727V44.1705C148.018 43.0909 147.678 42.2557 146.996 41.6648C146.325 41.0739 145.371 40.7784 144.132 40.7784C142.825 40.7784 141.786 41.0682 141.013 41.6477C140.24 42.2159 139.729 42.9318 139.479 43.7955L132.763 43.25C133.104 41.6591 133.774 40.2841 134.774 39.125C135.774 37.9545 137.064 37.0568 138.643 36.4318C140.234 35.7955 142.075 35.4773 144.166 35.4773C145.621 35.4773 147.013 35.6477 148.342 35.9886C149.683 36.3295 150.871 36.858 151.905 37.5739C152.95 38.2898 153.774 39.2102 154.376 40.3352C154.979 41.4489 155.28 42.7841 155.28 44.3409V62H148.393V58.3693H148.189C147.768 59.1875 147.206 59.9091 146.501 60.5341C145.797 61.1477 144.95 61.6307 143.962 61.983C142.973 62.3239 141.831 62.4943 140.536 62.4943ZM142.615 57.483C143.683 57.483 144.626 57.2727 145.445 56.8523C146.263 56.4205 146.905 55.8409 147.371 55.1136C147.837 54.3864 148.07 53.5625 148.07 52.642V49.8636C147.842 50.0114 147.53 50.1477 147.132 50.2727C146.746 50.3864 146.308 50.4943 145.82 50.5966C145.331 50.6875 144.842 50.7727 144.354 50.8523C143.865 50.9205 143.422 50.983 143.024 51.0398C142.172 51.1648 141.428 51.3636 140.791 51.6364C140.155 51.9091 139.661 52.2784 139.308 52.7443C138.956 53.1989 138.78 53.767 138.78 54.4489C138.78 55.4375 139.138 56.1932 139.854 56.7159C140.581 57.2273 141.501 57.483 142.615 57.483ZM174.839 35.8182V41.2727H159.072V35.8182H174.839ZM162.652 29.5455H169.913V53.9545C169.913 54.625 170.016 55.1477 170.22 55.5227C170.425 55.8864 170.709 56.142 171.072 56.2898C171.447 56.4375 171.879 56.5114 172.368 56.5114C172.709 56.5114 173.05 56.483 173.391 56.4261C173.732 56.358 173.993 56.3068 174.175 56.2727L175.317 61.6761C174.953 61.7898 174.442 61.9205 173.783 62.0682C173.124 62.2273 172.322 62.3239 171.379 62.358C169.629 62.4261 168.095 62.1932 166.777 61.6591C165.47 61.125 164.453 60.2955 163.726 59.1705C162.999 58.0455 162.641 56.625 162.652 54.9091V29.5455Z" fill="#E9B949"/>
<path d="M180.268 27.0909H189.371L198.984 50.5455H199.393L209.007 27.0909H218.109V62H210.95V39.2784H210.661L201.626 61.8295H196.751L187.717 39.1932H187.428V62H180.268V27.0909ZM231.52 62.4943C229.849 62.4943 228.361 62.2045 227.054 61.625C225.747 61.0341 224.713 60.1648 223.952 59.017C223.202 57.858 222.827 56.4148 222.827 54.6875C222.827 53.233 223.094 52.0114 223.628 51.0227C224.162 50.0341 224.889 49.2386 225.81 48.6364C226.73 48.0341 227.776 47.5795 228.946 47.2727C230.128 46.9659 231.366 46.75 232.662 46.625C234.185 46.4659 235.412 46.3182 236.344 46.1818C237.276 46.0341 237.952 45.8182 238.372 45.5341C238.793 45.25 239.003 44.8295 239.003 44.2727V44.1705C239.003 43.0909 238.662 42.2557 237.98 41.6648C237.31 41.0739 236.355 40.7784 235.116 40.7784C233.81 40.7784 232.77 41.0682 231.997 41.6477C231.224 42.2159 230.713 42.9318 230.463 43.7955L223.747 43.25C224.088 41.6591 224.759 40.2841 225.759 39.125C226.759 37.9545 228.048 37.0568 229.628 36.4318C231.219 35.7955 233.06 35.4773 235.151 35.4773C236.605 35.4773 237.997 35.6477 239.327 35.9886C240.668 36.3295 241.855 36.858 242.889 37.5739C243.935 38.2898 244.759 39.2102 245.361 40.3352C245.963 41.4489 246.264 42.7841 246.264 44.3409V62H239.378V58.3693H239.173C238.753 59.1875 238.19 59.9091 237.486 60.5341C236.781 61.1477 235.935 61.6307 234.946 61.983C233.957 62.3239 232.815 62.4943 231.52 62.4943ZM233.599 57.483C234.668 57.483 235.611 57.2727 236.429 56.8523C237.247 56.4205 237.889 55.8409 238.355 55.1136C238.821 54.3864 239.054 53.5625 239.054 52.642V49.8636C238.827 50.0114 238.514 50.1477 238.116 50.2727C237.73 50.3864 237.293 50.4943 236.804 50.5966C236.315 50.6875 235.827 50.7727 235.338 50.8523C234.849 50.9205 234.406 50.983 234.009 51.0398C233.156 51.1648 232.412 51.3636 231.776 51.6364C231.139 51.9091 230.645 52.2784 230.293 52.7443C229.94 53.1989 229.764 53.767 229.764 54.4489C229.764 55.4375 230.122 56.1932 230.838 56.7159C231.565 57.2273 232.486 57.483 233.599 57.483ZM265.824 35.8182V41.2727H250.057V35.8182H265.824ZM253.636 29.5455H260.898V53.9545C260.898 54.625 261 55.1477 261.205 55.5227C261.409 55.8864 261.693 56.142 262.057 56.2898C262.432 56.4375 262.864 56.5114 263.352 56.5114C263.693 56.5114 264.034 56.483 264.375 56.4261C264.716 56.358 264.977 56.3068 265.159 56.2727L266.301 61.6761C265.938 61.7898 265.426 61.9205 264.767 62.0682C264.108 62.2273 263.307 62.3239 262.364 62.358C260.614 62.4261 259.08 62.1932 257.761 61.6591C256.455 61.125 255.438 60.2955 254.71 59.1705C253.983 58.0455 253.625 56.625 253.636 54.9091V29.5455ZM282.102 62.5114C279.42 62.5114 277.114 61.9432 275.182 60.8068C273.261 59.6591 271.784 58.0682 270.75 56.0341C269.727 54 269.216 51.6591 269.216 49.0114C269.216 46.3295 269.733 43.9773 270.767 41.9545C271.813 39.9205 273.295 38.3352 275.216 37.1989C277.136 36.0511 279.42 35.4773 282.068 35.4773C284.352 35.4773 286.352 35.892 288.068 36.7216C289.784 37.5511 291.142 38.7159 292.142 40.2159C293.142 41.7159 293.693 43.4773 293.795 45.5H286.943C286.75 44.1932 286.239 43.142 285.409 42.3466C284.591 41.5398 283.517 41.1364 282.188 41.1364C281.062 41.1364 280.08 41.4432 279.239 42.0568C278.409 42.6591 277.761 43.5398 277.295 44.6989C276.83 45.858 276.597 47.2614 276.597 48.9091C276.597 50.5795 276.824 52 277.278 53.1705C277.744 54.3409 278.398 55.233 279.239 55.8466C280.08 56.4602 281.062 56.767 282.188 56.767C283.017 56.767 283.761 56.5966 284.42 56.2557C285.091 55.9148 285.642 55.4205 286.074 54.7727C286.517 54.1136 286.807 53.3239 286.943 52.4034H293.795C293.682 54.4034 293.136 56.1648 292.159 57.6875C291.193 59.1989 289.858 60.3807 288.153 61.233C286.449 62.0852 284.432 62.5114 282.102 62.5114ZM305.706 46.8636V62H298.445V27.0909H305.501V40.4375H305.808C306.399 38.892 307.354 37.6818 308.672 36.8068C309.99 35.9205 311.643 35.4773 313.632 35.4773C315.45 35.4773 317.036 35.875 318.388 36.6705C319.751 37.4545 320.808 38.5852 321.558 40.0625C322.32 41.5284 322.695 43.2841 322.683 45.3295V62H315.422V46.625C315.433 45.0114 315.024 43.7557 314.195 42.858C313.376 41.9602 312.229 41.5114 310.751 41.5114C309.763 41.5114 308.888 41.7216 308.126 42.142C307.376 42.5625 306.786 43.1761 306.354 43.983C305.933 44.7784 305.717 45.7386 305.706 46.8636Z" fill="black"/>
<defs>
<filter id="filter0_d_793_3680" x="309.4" y="7.04199" width="43.1992" height="43.1987" filterUnits="userSpaceOnUse" color-interpolation-filters="sRGB">
<feFlood flood-opacity="0" result="BackgroundImageFix"/>
<feColorMatrix in="SourceAlpha" type="matrix" values="0 0 0 0 0 0 0 0 0 0 0 0 0 0 0 0 0 0 127 0" result="hardAlpha"/>
<feOffset dy="4"/>
<feGaussianBlur stdDeviation="2"/>
<feComposite in2="hardAlpha" operator="out"/>
<feColorMatrix type="matrix" values="0 0 0 0 0 0 0 0 0 0 0 0 0 0 0 0 0 0 0.25 0"/>
<feBlend mode="normal" in2="BackgroundImageFix" result="effect1_dropShadow_793_3680"/>
<feBlend mode="normal" in="SourceGraphic" in2="effect1_dropShadow_793_3680" result="shape"/>
</filter>
</defs>
</svg>
